<mxfile host="app.diagrams.net" modified="2023-07-01T11:00:23.389Z" agent="Mozilla/5.0 (Windows NT 10.0; Win64; x64) AppleWebKit/537.36 (KHTML, like Gecko) Chrome/114.0.0.0 Safari/537.36" etag="GMeSPkIaHs3pLOtJ27RT" version="21.5.2" type="github">
  <diagram id="C5RBs43oDa-KdzZeNtuy" name="Page-1">
    <mxGraphModel dx="1050" dy="549" grid="1" gridSize="10" guides="1" tooltips="1" connect="1" arrows="1" fold="1" page="1" pageScale="1" pageWidth="827" pageHeight="1169" math="0" shadow="0">
      <root>
        <mxCell id="WIyWlLk6GJQsqaUBKTNV-0" />
        <mxCell id="WIyWlLk6GJQsqaUBKTNV-1" parent="WIyWlLk6GJQsqaUBKTNV-0" />
        <mxCell id="QZrlCzNC9SvsknBAOMpE-3" value="" style="edgeStyle=orthogonalEdgeStyle;rounded=0;orthogonalLoop=1;jettySize=auto;html=1;" edge="1" parent="WIyWlLk6GJQsqaUBKTNV-1" source="QZrlCzNC9SvsknBAOMpE-0" target="QZrlCzNC9SvsknBAOMpE-2">
          <mxGeometry relative="1" as="geometry" />
        </mxCell>
        <mxCell id="QZrlCzNC9SvsknBAOMpE-0" value="用户请求" style="ellipse;whiteSpace=wrap;html=1;fillColor=#dae8fc;strokeColor=#6c8ebf;" vertex="1" parent="WIyWlLk6GJQsqaUBKTNV-1">
          <mxGeometry x="178.75" y="80" width="82.5" height="40" as="geometry" />
        </mxCell>
        <mxCell id="QZrlCzNC9SvsknBAOMpE-5" value="" style="edgeStyle=orthogonalEdgeStyle;rounded=0;orthogonalLoop=1;jettySize=auto;html=1;" edge="1" parent="WIyWlLk6GJQsqaUBKTNV-1" source="QZrlCzNC9SvsknBAOMpE-2" target="QZrlCzNC9SvsknBAOMpE-4">
          <mxGeometry relative="1" as="geometry" />
        </mxCell>
        <mxCell id="QZrlCzNC9SvsknBAOMpE-2" value="...filter" style="whiteSpace=wrap;html=1;fillColor=#fff2cc;strokeColor=#d6b656;" vertex="1" parent="WIyWlLk6GJQsqaUBKTNV-1">
          <mxGeometry x="180" y="170" width="80" height="30" as="geometry" />
        </mxCell>
        <mxCell id="QZrlCzNC9SvsknBAOMpE-7" value="" style="edgeStyle=orthogonalEdgeStyle;rounded=0;orthogonalLoop=1;jettySize=auto;html=1;" edge="1" parent="WIyWlLk6GJQsqaUBKTNV-1" source="QZrlCzNC9SvsknBAOMpE-4" target="QZrlCzNC9SvsknBAOMpE-6">
          <mxGeometry relative="1" as="geometry" />
        </mxCell>
        <mxCell id="QZrlCzNC9SvsknBAOMpE-8" value="是" style="edgeLabel;html=1;align=center;verticalAlign=middle;resizable=0;points=[];" vertex="1" connectable="0" parent="QZrlCzNC9SvsknBAOMpE-7">
          <mxGeometry x="-0.0914" y="-1" relative="1" as="geometry">
            <mxPoint y="-11" as="offset" />
          </mxGeometry>
        </mxCell>
        <mxCell id="QZrlCzNC9SvsknBAOMpE-12" value="" style="edgeStyle=orthogonalEdgeStyle;rounded=0;orthogonalLoop=1;jettySize=auto;html=1;" edge="1" parent="WIyWlLk6GJQsqaUBKTNV-1" source="QZrlCzNC9SvsknBAOMpE-4" target="QZrlCzNC9SvsknBAOMpE-11">
          <mxGeometry relative="1" as="geometry" />
        </mxCell>
        <mxCell id="QZrlCzNC9SvsknBAOMpE-13" value="否" style="edgeLabel;html=1;align=center;verticalAlign=middle;resizable=0;points=[];" vertex="1" connectable="0" parent="QZrlCzNC9SvsknBAOMpE-12">
          <mxGeometry x="-0.205" y="-4" relative="1" as="geometry">
            <mxPoint x="-6" as="offset" />
          </mxGeometry>
        </mxCell>
        <mxCell id="QZrlCzNC9SvsknBAOMpE-4" value="是否是登出请求" style="rhombus;whiteSpace=wrap;html=1;shadow=0;fontFamily=Helvetica;fontSize=12;align=center;strokeWidth=1;spacing=6;spacingTop=-4;fillColor=#f8cecc;strokeColor=#b85450;" vertex="1" parent="WIyWlLk6GJQsqaUBKTNV-1">
          <mxGeometry x="170" y="230" width="100" height="80" as="geometry" />
        </mxCell>
        <mxCell id="QZrlCzNC9SvsknBAOMpE-10" value="" style="edgeStyle=orthogonalEdgeStyle;rounded=0;orthogonalLoop=1;jettySize=auto;html=1;" edge="1" parent="WIyWlLk6GJQsqaUBKTNV-1" source="QZrlCzNC9SvsknBAOMpE-6" target="QZrlCzNC9SvsknBAOMpE-9">
          <mxGeometry relative="1" as="geometry" />
        </mxCell>
        <mxCell id="QZrlCzNC9SvsknBAOMpE-6" value="LogoutHandler" style="whiteSpace=wrap;html=1;shadow=0;strokeWidth=1;spacing=6;spacingTop=-4;fillColor=#fff2cc;strokeColor=#d6b656;" vertex="1" parent="WIyWlLk6GJQsqaUBKTNV-1">
          <mxGeometry x="320" y="240" width="120" height="60" as="geometry" />
        </mxCell>
        <mxCell id="QZrlCzNC9SvsknBAOMpE-9" value="LogoutSuccess&lt;br&gt;Handler" style="whiteSpace=wrap;html=1;fillColor=#fff2cc;strokeColor=#d6b656;shadow=0;strokeWidth=1;spacing=6;spacingTop=-4;" vertex="1" parent="WIyWlLk6GJQsqaUBKTNV-1">
          <mxGeometry x="520" y="240" width="120" height="60" as="geometry" />
        </mxCell>
        <mxCell id="QZrlCzNC9SvsknBAOMpE-15" value="" style="edgeStyle=orthogonalEdgeStyle;rounded=0;orthogonalLoop=1;jettySize=auto;html=1;" edge="1" parent="WIyWlLk6GJQsqaUBKTNV-1" source="QZrlCzNC9SvsknBAOMpE-11" target="QZrlCzNC9SvsknBAOMpE-14">
          <mxGeometry relative="1" as="geometry" />
        </mxCell>
        <mxCell id="QZrlCzNC9SvsknBAOMpE-31" value="" style="edgeStyle=orthogonalEdgeStyle;rounded=0;orthogonalLoop=1;jettySize=auto;html=1;" edge="1" parent="WIyWlLk6GJQsqaUBKTNV-1" source="QZrlCzNC9SvsknBAOMpE-11" target="QZrlCzNC9SvsknBAOMpE-30">
          <mxGeometry relative="1" as="geometry" />
        </mxCell>
        <mxCell id="QZrlCzNC9SvsknBAOMpE-11" value="是否是登录请求" style="rhombus;whiteSpace=wrap;html=1;shadow=0;fontFamily=Helvetica;fontSize=12;align=center;strokeWidth=1;spacing=6;spacingTop=-4;fillColor=#f8cecc;strokeColor=#b85450;" vertex="1" parent="WIyWlLk6GJQsqaUBKTNV-1">
          <mxGeometry x="170" y="350" width="100" height="80" as="geometry" />
        </mxCell>
        <mxCell id="QZrlCzNC9SvsknBAOMpE-18" value="" style="edgeStyle=orthogonalEdgeStyle;rounded=0;orthogonalLoop=1;jettySize=auto;html=1;" edge="1" parent="WIyWlLk6GJQsqaUBKTNV-1" source="QZrlCzNC9SvsknBAOMpE-14" target="QZrlCzNC9SvsknBAOMpE-17">
          <mxGeometry relative="1" as="geometry" />
        </mxCell>
        <mxCell id="QZrlCzNC9SvsknBAOMpE-14" value="自定义验证码filter" style="whiteSpace=wrap;html=1;fillColor=#fff2cc;strokeColor=#d6b656;shadow=0;strokeWidth=1;spacing=6;spacingTop=-4;" vertex="1" parent="WIyWlLk6GJQsqaUBKTNV-1">
          <mxGeometry x="320" y="360" width="120" height="60" as="geometry" />
        </mxCell>
        <mxCell id="QZrlCzNC9SvsknBAOMpE-16" value="是" style="text;html=1;align=center;verticalAlign=middle;resizable=0;points=[];autosize=1;strokeColor=none;fillColor=none;" vertex="1" parent="WIyWlLk6GJQsqaUBKTNV-1">
          <mxGeometry x="280" y="360" width="40" height="30" as="geometry" />
        </mxCell>
        <mxCell id="QZrlCzNC9SvsknBAOMpE-20" value="" style="edgeStyle=orthogonalEdgeStyle;rounded=0;orthogonalLoop=1;jettySize=auto;html=1;" edge="1" parent="WIyWlLk6GJQsqaUBKTNV-1" source="QZrlCzNC9SvsknBAOMpE-17" target="QZrlCzNC9SvsknBAOMpE-19">
          <mxGeometry relative="1" as="geometry" />
        </mxCell>
        <mxCell id="QZrlCzNC9SvsknBAOMpE-17" value="UsernamePassword&lt;br&gt;AuthenticatiionFilter" style="whiteSpace=wrap;html=1;fillColor=#fff2cc;strokeColor=#d6b656;shadow=0;strokeWidth=1;spacing=6;spacingTop=-4;" vertex="1" parent="WIyWlLk6GJQsqaUBKTNV-1">
          <mxGeometry x="510" y="360" width="120" height="60" as="geometry" />
        </mxCell>
        <mxCell id="QZrlCzNC9SvsknBAOMpE-24" value="" style="edgeStyle=orthogonalEdgeStyle;rounded=0;orthogonalLoop=1;jettySize=auto;html=1;" edge="1" parent="WIyWlLk6GJQsqaUBKTNV-1" source="QZrlCzNC9SvsknBAOMpE-19">
          <mxGeometry relative="1" as="geometry">
            <mxPoint x="960" y="390" as="targetPoint" />
          </mxGeometry>
        </mxCell>
        <mxCell id="QZrlCzNC9SvsknBAOMpE-19" value="认证管理器" style="whiteSpace=wrap;html=1;fillColor=#fff2cc;strokeColor=#d6b656;shadow=0;strokeWidth=1;spacing=6;spacingTop=-4;" vertex="1" parent="WIyWlLk6GJQsqaUBKTNV-1">
          <mxGeometry x="680" y="360" width="120" height="60" as="geometry" />
        </mxCell>
        <mxCell id="QZrlCzNC9SvsknBAOMpE-27" value="" style="edgeStyle=orthogonalEdgeStyle;rounded=0;orthogonalLoop=1;jettySize=auto;html=1;" edge="1" parent="WIyWlLk6GJQsqaUBKTNV-1" source="QZrlCzNC9SvsknBAOMpE-25" target="QZrlCzNC9SvsknBAOMpE-26">
          <mxGeometry relative="1" as="geometry" />
        </mxCell>
        <mxCell id="QZrlCzNC9SvsknBAOMpE-29" value="" style="edgeStyle=orthogonalEdgeStyle;rounded=0;orthogonalLoop=1;jettySize=auto;html=1;" edge="1" parent="WIyWlLk6GJQsqaUBKTNV-1" source="QZrlCzNC9SvsknBAOMpE-25" target="QZrlCzNC9SvsknBAOMpE-28">
          <mxGeometry relative="1" as="geometry" />
        </mxCell>
        <mxCell id="QZrlCzNC9SvsknBAOMpE-25" value="是否认证成功" style="rhombus;whiteSpace=wrap;html=1;shadow=0;fontFamily=Helvetica;fontSize=12;align=center;strokeWidth=1;spacing=6;spacingTop=-4;fillColor=#f8cecc;strokeColor=#b85450;" vertex="1" parent="WIyWlLk6GJQsqaUBKTNV-1">
          <mxGeometry x="960" y="350" width="100" height="80" as="geometry" />
        </mxCell>
        <mxCell id="QZrlCzNC9SvsknBAOMpE-26" value="认证成功处理器" style="whiteSpace=wrap;html=1;fillColor=#fff2cc;strokeColor=#d6b656;shadow=0;strokeWidth=1;spacing=6;spacingTop=-4;" vertex="1" parent="WIyWlLk6GJQsqaUBKTNV-1">
          <mxGeometry x="1130" y="360" width="120" height="60" as="geometry" />
        </mxCell>
        <mxCell id="QZrlCzNC9SvsknBAOMpE-28" value="认证失败处理器" style="whiteSpace=wrap;html=1;fillColor=#fff2cc;strokeColor=#d6b656;shadow=0;strokeWidth=1;spacing=6;spacingTop=-4;" vertex="1" parent="WIyWlLk6GJQsqaUBKTNV-1">
          <mxGeometry x="950" y="520" width="120" height="60" as="geometry" />
        </mxCell>
        <mxCell id="QZrlCzNC9SvsknBAOMpE-34" value="" style="edgeStyle=orthogonalEdgeStyle;rounded=0;orthogonalLoop=1;jettySize=auto;html=1;" edge="1" parent="WIyWlLk6GJQsqaUBKTNV-1" source="QZrlCzNC9SvsknBAOMpE-30" target="QZrlCzNC9SvsknBAOMpE-33">
          <mxGeometry relative="1" as="geometry" />
        </mxCell>
        <mxCell id="QZrlCzNC9SvsknBAOMpE-36" value="" style="edgeStyle=orthogonalEdgeStyle;rounded=0;orthogonalLoop=1;jettySize=auto;html=1;" edge="1" parent="WIyWlLk6GJQsqaUBKTNV-1" source="QZrlCzNC9SvsknBAOMpE-30" target="QZrlCzNC9SvsknBAOMpE-35">
          <mxGeometry relative="1" as="geometry" />
        </mxCell>
        <mxCell id="QZrlCzNC9SvsknBAOMpE-30" value="BasicAuthentication&lt;br&gt;Filter自定义" style="whiteSpace=wrap;html=1;fillColor=#fff2cc;strokeColor=#d6b656;shadow=0;strokeWidth=1;spacing=6;spacingTop=-4;" vertex="1" parent="WIyWlLk6GJQsqaUBKTNV-1">
          <mxGeometry x="160" y="488" width="120" height="60" as="geometry" />
        </mxCell>
        <mxCell id="QZrlCzNC9SvsknBAOMpE-32" value="否" style="text;html=1;align=center;verticalAlign=middle;resizable=0;points=[];autosize=1;strokeColor=none;fillColor=none;" vertex="1" parent="WIyWlLk6GJQsqaUBKTNV-1">
          <mxGeometry x="190" y="458" width="40" height="30" as="geometry" />
        </mxCell>
        <mxCell id="QZrlCzNC9SvsknBAOMpE-33" value="AuthenticationEntryPoint&lt;br&gt;认证失败处理器" style="whiteSpace=wrap;html=1;fillColor=#fff2cc;strokeColor=#d6b656;shadow=0;strokeWidth=1;spacing=6;spacingTop=-4;" vertex="1" parent="WIyWlLk6GJQsqaUBKTNV-1">
          <mxGeometry x="320" y="488" width="140" height="60" as="geometry" />
        </mxCell>
        <mxCell id="QZrlCzNC9SvsknBAOMpE-38" value="" style="edgeStyle=orthogonalEdgeStyle;rounded=0;orthogonalLoop=1;jettySize=auto;html=1;" edge="1" parent="WIyWlLk6GJQsqaUBKTNV-1" source="QZrlCzNC9SvsknBAOMpE-35" target="QZrlCzNC9SvsknBAOMpE-37">
          <mxGeometry relative="1" as="geometry" />
        </mxCell>
        <mxCell id="QZrlCzNC9SvsknBAOMpE-48" value="" style="edgeStyle=orthogonalEdgeStyle;rounded=0;orthogonalLoop=1;jettySize=auto;html=1;" edge="1" parent="WIyWlLk6GJQsqaUBKTNV-1" source="QZrlCzNC9SvsknBAOMpE-35" target="QZrlCzNC9SvsknBAOMpE-47">
          <mxGeometry relative="1" as="geometry" />
        </mxCell>
        <mxCell id="QZrlCzNC9SvsknBAOMpE-35" value="ExceptionTransaction&lt;br&gt;Filter" style="whiteSpace=wrap;html=1;fillColor=#fff2cc;strokeColor=#d6b656;shadow=0;strokeWidth=1;spacing=6;spacingTop=-4;" vertex="1" parent="WIyWlLk6GJQsqaUBKTNV-1">
          <mxGeometry x="160" y="610" width="120" height="60" as="geometry" />
        </mxCell>
        <mxCell id="QZrlCzNC9SvsknBAOMpE-40" value="" style="edgeStyle=orthogonalEdgeStyle;rounded=0;orthogonalLoop=1;jettySize=auto;html=1;" edge="1" parent="WIyWlLk6GJQsqaUBKTNV-1" source="QZrlCzNC9SvsknBAOMpE-37" target="QZrlCzNC9SvsknBAOMpE-39">
          <mxGeometry relative="1" as="geometry" />
        </mxCell>
        <mxCell id="QZrlCzNC9SvsknBAOMpE-42" value="" style="edgeStyle=orthogonalEdgeStyle;rounded=0;orthogonalLoop=1;jettySize=auto;html=1;" edge="1" parent="WIyWlLk6GJQsqaUBKTNV-1" source="QZrlCzNC9SvsknBAOMpE-37" target="QZrlCzNC9SvsknBAOMpE-41">
          <mxGeometry relative="1" as="geometry" />
        </mxCell>
        <mxCell id="QZrlCzNC9SvsknBAOMpE-37" value="异常类型" style="rhombus;whiteSpace=wrap;html=1;fillColor=#f8cecc;strokeColor=#b85450;shadow=0;strokeWidth=1;spacing=6;spacingTop=-4;" vertex="1" parent="WIyWlLk6GJQsqaUBKTNV-1">
          <mxGeometry x="380" y="650" width="80" height="80" as="geometry" />
        </mxCell>
        <mxCell id="QZrlCzNC9SvsknBAOMpE-46" value="" style="edgeStyle=orthogonalEdgeStyle;rounded=0;orthogonalLoop=1;jettySize=auto;html=1;" edge="1" parent="WIyWlLk6GJQsqaUBKTNV-1" source="QZrlCzNC9SvsknBAOMpE-39" target="QZrlCzNC9SvsknBAOMpE-45">
          <mxGeometry relative="1" as="geometry" />
        </mxCell>
        <mxCell id="QZrlCzNC9SvsknBAOMpE-39" value="Authentication&lt;br&gt;Exception" style="whiteSpace=wrap;html=1;fillColor=#fff2cc;strokeColor=#d6b656;shadow=0;strokeWidth=1;spacing=6;spacingTop=-4;" vertex="1" parent="WIyWlLk6GJQsqaUBKTNV-1">
          <mxGeometry x="520" y="660" width="120" height="60" as="geometry" />
        </mxCell>
        <mxCell id="QZrlCzNC9SvsknBAOMpE-44" value="" style="edgeStyle=orthogonalEdgeStyle;rounded=0;orthogonalLoop=1;jettySize=auto;html=1;" edge="1" parent="WIyWlLk6GJQsqaUBKTNV-1" source="QZrlCzNC9SvsknBAOMpE-41" target="QZrlCzNC9SvsknBAOMpE-43">
          <mxGeometry relative="1" as="geometry" />
        </mxCell>
        <mxCell id="QZrlCzNC9SvsknBAOMpE-41" value="AccessDenied&lt;br&gt;Exception" style="whiteSpace=wrap;html=1;fillColor=#fff2cc;strokeColor=#d6b656;shadow=0;strokeWidth=1;spacing=6;spacingTop=-4;" vertex="1" parent="WIyWlLk6GJQsqaUBKTNV-1">
          <mxGeometry x="360" y="780" width="120" height="60" as="geometry" />
        </mxCell>
        <mxCell id="QZrlCzNC9SvsknBAOMpE-43" value="AccessDenied&lt;br&gt;Handler" style="whiteSpace=wrap;html=1;fillColor=#fff2cc;strokeColor=#d6b656;shadow=0;strokeWidth=1;spacing=6;spacingTop=-4;" vertex="1" parent="WIyWlLk6GJQsqaUBKTNV-1">
          <mxGeometry x="560" y="780" width="120" height="60" as="geometry" />
        </mxCell>
        <mxCell id="QZrlCzNC9SvsknBAOMpE-45" value="Authentication&lt;br&gt;EntryPoint" style="whiteSpace=wrap;html=1;fillColor=#fff2cc;strokeColor=#d6b656;shadow=0;strokeWidth=1;spacing=6;spacingTop=-4;" vertex="1" parent="WIyWlLk6GJQsqaUBKTNV-1">
          <mxGeometry x="720" y="660" width="120" height="60" as="geometry" />
        </mxCell>
        <mxCell id="QZrlCzNC9SvsknBAOMpE-50" value="" style="edgeStyle=orthogonalEdgeStyle;rounded=0;orthogonalLoop=1;jettySize=auto;html=1;" edge="1" parent="WIyWlLk6GJQsqaUBKTNV-1" source="QZrlCzNC9SvsknBAOMpE-47" target="QZrlCzNC9SvsknBAOMpE-49">
          <mxGeometry relative="1" as="geometry" />
        </mxCell>
        <mxCell id="QZrlCzNC9SvsknBAOMpE-47" value="FilterSecurity&lt;br&gt;Interceptor" style="whiteSpace=wrap;html=1;fillColor=#fff2cc;strokeColor=#d6b656;shadow=0;strokeWidth=1;spacing=6;spacingTop=-4;" vertex="1" parent="WIyWlLk6GJQsqaUBKTNV-1">
          <mxGeometry x="160" y="710" width="120" height="60" as="geometry" />
        </mxCell>
        <mxCell id="QZrlCzNC9SvsknBAOMpE-52" value="" style="edgeStyle=orthogonalEdgeStyle;rounded=0;orthogonalLoop=1;jettySize=auto;html=1;" edge="1" parent="WIyWlLk6GJQsqaUBKTNV-1" source="QZrlCzNC9SvsknBAOMpE-49" target="QZrlCzNC9SvsknBAOMpE-51">
          <mxGeometry relative="1" as="geometry" />
        </mxCell>
        <mxCell id="QZrlCzNC9SvsknBAOMpE-49" value="鉴权管理器" style="whiteSpace=wrap;html=1;fillColor=#fff2cc;strokeColor=#d6b656;shadow=0;strokeWidth=1;spacing=6;spacingTop=-4;" vertex="1" parent="WIyWlLk6GJQsqaUBKTNV-1">
          <mxGeometry x="160" y="810" width="120" height="60" as="geometry" />
        </mxCell>
        <mxCell id="QZrlCzNC9SvsknBAOMpE-51" value="权限是否&lt;br&gt;通过" style="rhombus;whiteSpace=wrap;html=1;fillColor=#f8cecc;strokeColor=#b85450;shadow=0;strokeWidth=1;spacing=6;spacingTop=-4;" vertex="1" parent="WIyWlLk6GJQsqaUBKTNV-1">
          <mxGeometry x="178.75" y="920" width="80" height="80" as="geometry" />
        </mxCell>
      </root>
    </mxGraphModel>
  </diagram>
</mxfile>
